<svg width="86" height="29" xmlns="http://www.w3.org/2000/svg" fill="none">

 <g>
  <title>Layer 1</title>
  <rect id="svg_1" fill="#25A56A" rx="1" height="4" width="4" y="19"/>
  <rect id="svg_2" fill="#25A56A" rx="1" height="4" width="4" y="19" x="5"/>
  <rect id="svg_3" fill="#25A56A" rx="1" height="4" width="4" y="19" x="10"/>
  <rect id="svg_4" fill="#25A56A" rx="1" height="4" width="4" y="19" x="15"/>
  <rect id="svg_5" fill-opacity="0.25" fill="#25A56A" rx="1" height="4" width="4" y="14"/>
  <rect id="svg_6" fill="#25A56A" rx="1" height="4" width="4" y="14" x="5"/>
  <rect id="svg_7" fill="#25A56A" rx="1" height="4" width="4" y="14" x="10"/>
  <rect id="svg_8" fill="#25A56A" rx="1" height="4" width="4" y="14" x="15"/>
  <rect id="svg_9" fill-opacity="0.25" fill="#25A56A" rx="1" height="4" width="4" y="9"/>
  <rect id="svg_10" fill-opacity="0.25" fill="#25A56A" rx="1" height="4" width="4" y="9" x="5"/>
  <rect id="svg_11" fill="#25A56A" rx="1" height="4" width="4" y="9" x="10"/>
  <rect id="svg_12" fill-opacity="0.25" fill="#25A56A" rx="1" height="4" width="4" y="9" x="15"/>
  <text font-style="normal" xml:space="preserve" text-anchor="start" font-family="'Cabin'" font-size="24" stroke-width="0" id="svg_14" y="22.02631" x="21.68419" fill="#ffffff">music</text>
 </g>
</svg>